HIERARCHY
ROOT Hips
{
  OFFSET 5.84602e-005 68.8428 3.50346
  CHANNELS 6 Xposition Yposition Zposition Zrotation Xrotation Yrotation
  JOINT Spine
  {
    OFFSET 0 8.597 -4.6522
    CHANNELS 3 Zrotation Xrotation Yrotation
    JOINT Spine1
    {
      OFFSET 0 7.8454 0.4098
      CHANNELS 3 Zrotation Xrotation Yrotation
      JOINT Spine2
      {
        OFFSET 0 9.7078 -2.1609
        CHANNELS 3 Zrotation Xrotation Yrotation
        JOINT Neck
        {
          OFFSET 0 21.8761 -0.4549
          CHANNELS 3 Zrotation Xrotation Yrotation
          JOINT Head
          {
            OFFSET 0 12.3537 3.3602
            CHANNELS 3 Zrotation Xrotation Yrotation
            End Site
            {
              OFFSET 0.0001 18.9506 0.5657
            }
          }
        }
        JOINT LeftShoulder
        {
          OFFSET 2.2086 21.1115 7.2329
          CHANNELS 3 Zrotation Xrotation Yrotation
          JOINT LeftArm
          {
            OFFSET 13.1193 3.0282 -4.8998
            CHANNELS 3 Zrotation Xrotation Yrotation
            JOINT LeftForeArm
            {
              OFFSET 27.4081 -0.0973053 -0.2375
              CHANNELS 3 Zrotation Xrotation Yrotation
              JOINT LeftHand
              {
                OFFSET 22.8641 0.0662994 -0.1369
                CHANNELS 3 Zrotation Xrotation Yrotation
                JOINT LeftHandIndex1
                {
                  OFFSET 8.8614 0.775009 2.4612
                  CHANNELS 3 Zrotation Xrotation Yrotation
                  JOINT LeftHandIndex2
                  {
                    OFFSET 3.3146 -0.808304 0.5841
                    CHANNELS 3 Zrotation Xrotation Yrotation
                    JOINT LeftHandIndex3
                    {
                      OFFSET 2.2628 -0.552002 0.3989
                      CHANNELS 3 Zrotation Xrotation Yrotation
                      End Site
                      {
                        OFFSET 1.6102 -0.4807 0.2612
                      }
                    }
                  }
                }
                JOINT LeftHandMiddle1
                {
                  OFFSET 8.9937 0.895004 0.2143
                  CHANNELS 3 Zrotation Xrotation Yrotation
                  JOINT LeftHandMiddle2
                  {
                    OFFSET 4.0984 0.0113983 -0.0242
                    CHANNELS 3 Zrotation Xrotation Yrotation
                    JOINT LeftHandMiddle3
                    {
                      OFFSET 2.2716 0.00689697 -0.0138001
                      CHANNELS 3 Zrotation Xrotation Yrotation
                      End Site
                      {
                        OFFSET 2.0404 -0.1441 0.0027
                      }
                    }
                  }
                }
                JOINT LeftHandRing1
                {
                  OFFSET 8.5234 0.597198 -2.0164
                  CHANNELS 3 Zrotation Xrotation Yrotation
                  JOINT LeftHandRing2
                  {
                    OFFSET 3.7188 -0.188293 -0.2328
                    CHANNELS 3 Zrotation Xrotation Yrotation
                    JOINT LeftHandRing3
                    {
                      OFFSET 2.1191 -0.106598 -0.1332
                      CHANNELS 3 Zrotation Xrotation Yrotation
                      End Site
                      {
                        OFFSET 1.8737 -0.2304 -0.0886
                      }
                    }
                  }
                }
                JOINT LeftHandPinky1
                {
                  OFFSET 7.9094 -0.601089 -3.4825
                  CHANNELS 3 Zrotation Xrotation Yrotation
                  JOINT LeftHandPinky2
                  {
                    OFFSET 2.2874 -0.477005 -0.6314
                    CHANNELS 3 Zrotation Xrotation Yrotation
                    JOINT LeftHandPinky3
                    {
                      OFFSET 1.6774 -0.349396 -0.4633
                      CHANNELS 3 Zrotation Xrotation Yrotation
                      End Site
                      {
                        OFFSET 1.4888 -0.4091 -0.3416
                      }
                    }
                  }
                }
                JOINT LeftHandThumb1
                {
                  OFFSET 1.833 -1.3875 1.3896
                  CHANNELS 3 Zrotation Xrotation Yrotation
                  JOINT LeftHandThumb2
                  {
                    OFFSET 3.4129 -1.121 2.5732
                    CHANNELS 3 Zrotation Xrotation Yrotation
                    JOINT LeftHandThumb3
                    {
                      OFFSET 2.2474 -0.804199 1.6192
                      CHANNELS 3 Zrotation Xrotation Yrotation
                      End Site
                      {
                        OFFSET 1.6527 -0.5689 1.1317
                      }
                    }
                  }
                }
              }
            }
          }
        }
        JOINT RightShoulder
        {
          OFFSET -2.2086 21.1115 7.2329
          CHANNELS 3 Zrotation Xrotation Yrotation
          JOINT RightArm
          {
            OFFSET -13.1216 3.0287 -4.9007
            CHANNELS 3 Zrotation Xrotation Yrotation
            JOINT RightForeArm
            {
              OFFSET -27.4081 -0.0973053 -0.2375
              CHANNELS 3 Zrotation Xrotation Yrotation
              JOINT RightHand
              {
                OFFSET -22.8641 0.0664063 -0.1369
                CHANNELS 3 Zrotation Xrotation Yrotation
                JOINT RightHandIndex1
                {
                  OFFSET -8.8614 0.774994 2.4612
                  CHANNELS 3 Zrotation Xrotation Yrotation
                  JOINT RightHandIndex2
                  {
                    OFFSET -3.3146 -0.808304 0.5841
                    CHANNELS 3 Zrotation Xrotation Yrotation
                    JOINT RightHandIndex3
                    {
                      OFFSET -2.2628 -0.552002 0.3989
                      CHANNELS 3 Zrotation Xrotation Yrotation
                      End Site
                      {
                        OFFSET -1.6102 -0.4807 0.2612
                      }
                    }
                  }
                }
                JOINT RightHandMiddle1
                {
                  OFFSET -8.9937 0.894989 0.2143
                  CHANNELS 3 Zrotation Xrotation Yrotation
                  JOINT RightHandMiddle2
                  {
                    OFFSET -4.0984 0.0113983 -0.0242
                    CHANNELS 3 Zrotation Xrotation Yrotation
                    JOINT RightHandMiddle3
                    {
                      OFFSET -2.2716 0.00691223 -0.0138001
                      CHANNELS 3 Zrotation Xrotation Yrotation
                      End Site
                      {
                        OFFSET -2.0404 -0.1441 0.0027
                      }
                    }
                  }
                }
                JOINT RightHandRing1
                {
                  OFFSET -8.5234 0.597198 -2.0164
                  CHANNELS 3 Zrotation Xrotation Yrotation
                  JOINT RightHandRing2
                  {
                    OFFSET -3.7188 -0.188309 -0.2328
                    CHANNELS 3 Zrotation Xrotation Yrotation
                    JOINT RightHandRing3
                    {
                      OFFSET -2.1191 -0.106598 -0.1332
                      CHANNELS 3 Zrotation Xrotation Yrotation
                      End Site
                      {
                        OFFSET -1.8737 -0.2304 -0.0886
                      }
                    }
                  }
                }
                JOINT RightHandPinky1
                {
                  OFFSET -7.9094 -0.601105 -3.4825
                  CHANNELS 3 Zrotation Xrotation Yrotation
                  JOINT RightHandPinky2
                  {
                    OFFSET -2.2874 -0.477005 -0.6314
                    CHANNELS 3 Zrotation Xrotation Yrotation
                    JOINT RightHandPinky3
                    {
                      OFFSET -1.6774 -0.349396 -0.4633
                      CHANNELS 3 Zrotation Xrotation Yrotation
                      End Site
                      {
                        OFFSET -1.4888 -0.4091 -0.3416
                      }
                    }
                  }
                }
                JOINT RightHandThumb1
                {
                  OFFSET -1.833 -1.38751 1.3896
                  CHANNELS 3 Zrotation Xrotation Yrotation
                  JOINT RightHandThumb2
                  {
                    OFFSET -3.41299 -1.12099 2.5732
                    CHANNELS 3 Zrotation Xrotation Yrotation
                    JOINT RightHandThumb3
                    {
                      OFFSET -2.24741 -0.804108 1.6192
                      CHANNELS 3 Zrotation Xrotation Yrotation
                      End Site
                      {
                        OFFSET -1.6527 -0.5689 1.1317
                      }
                    }
                  }
                }
              }
            }
          }
        }
      }
    }
  }
  JOINT RightUpLeg
  {
    OFFSET -9.1966 3.8861 -0.7581
    CHANNELS 3 Zrotation Xrotation Yrotation
    JOINT RightLeg
    {
      OFFSET -0.7359 -41.0265 0
      CHANNELS 3 Zrotation Xrotation Yrotation
      JOINT RightFoot
      {
        OFFSET 0 -40.2855 0
        CHANNELS 3 Zrotation Xrotation Yrotation
        JOINT RightToeBase
        {
          OFFSET 0 -5.6122 11.7359
          CHANNELS 3 Zrotation Xrotation Yrotation
          End Site
          {
            OFFSET 0 0 7.8731
          }
        }
      }
    }
  }
  JOINT LeftUpLeg
  {
    OFFSET 9.1965 3.8864 -0.7581
    CHANNELS 3 Zrotation Xrotation Yrotation
    JOINT LeftLeg
    {
      OFFSET 0.7359 -41.0268 0
      CHANNELS 3 Zrotation Xrotation Yrotation
      JOINT LeftFoot
      {
        OFFSET 0 -40.2855 0
        CHANNELS 3 Zrotation Xrotation Yrotation
        JOINT LeftToeBase
        {
          OFFSET 0 -5.6122 11.7359
          CHANNELS 3 Zrotation Xrotation Yrotation
          End Site
          {
            OFFSET 0 0 7.8731
          }
        }
      }
    }
  }
}
MOTION
Frames:	4
Frame Time:	0.0333333
0.165621 3.76769 5.42236 -0 -26.0015 -0 0.914919 9.82662 5.73317 0.830061 19.695 11.5667 0.830059 19.695 11.5667 -0.945962 -0.270854 -0.00749191 -0.596123 -6.87336 11.3201 -1.35553e-006 -6.75044e-006 0.0357876 -2.9584 -14.2272 -51.1347 -8.62022e-007 1.24502e-006 -14.0005 0.049597 -0.29508 -0.0618561 7.95139e-016 0 6.36111e-015 1.59028e-015 7.95139e-016 -6.36111e-015 -7.95139e-016 -7.95139e-016 3.18055e-015 7.95139e-016 0 6.36111e-015 -0.0146321 -8.97441e-005 3.59893e-006 0 3.18055e-015 -0 7.95139e-016 0 6.36111e-015 -0.0186963 -0.00117261 5.77174e-005 1.59028e-015 -7.95139e-016 -3.18055e-015 7.95139e-016 0 6.36111e-015 -0.0122152 -0.00323284 0.000668876 2.38542e-015 -7.95139e-016 -3.18055e-015 7.95139e-016 0 6.36111e-015 1.59028e-015 7.95139e-016 -6.36111e-015 -7.95139e-016 -7.95139e-016 3.18055e-015 -1.08853e-008 -5.01476e-006 -3.09815e-006 36.4954 -21.8303 64.7507 6.25418 3.28897 72.5387 -1.30821e-006 1.23043e-006 -4.67433e-006 0 0 -3.18055e-015 -1.55811e-006 -3.60054e-007 4.36072e-007 -3.18055e-015 -3.18055e-015 -0 0 0 -3.18055e-015 0.0150194 -9.36642e-005 1.35925e-006 1.11319e-014 0 -3.18055e-015 0 0 -3.18055e-015 0.0189649 -0.00118779 -5.65126e-005 -7.95139e-015 -3.18055e-015 -6.36111e-015 0 0 -3.18055e-015 0.0121678 -0.00321835 -0.000670457 6.36111e-015 -9.54166e-015 9.54166e-015 0 0 -3.18055e-015 -1.55811e-006 -3.60054e-007 4.36072e-007 -3.18055e-015 -3.18055e-015 -0 -41.8429 -70.9903 -41.391 0.110771 31.3401 -1.96447 -3.95082 27.6588 0.972922 5.15085e-007 3.2986e-006 -3.11109e-007 -167.861 -71.3961 -160.495 -179.965 46.6491 -175.131 3.42872 -4.43492 3.39634 4.43683e-015 -1.59028e-015 1.01681e-013 
0.166095 3.76606 5.42223 -0 -26.0015 -0 0.914914 9.82663 5.73317 0.830062 19.695 11.5667 0.830059 19.695 11.5667 -0.94602 -0.271024 -0.0074807 -0.586419 -6.95267 11.5115 -1.32479e-006 -8.30306e-006 0.0358993 -2.9584 -14.2272 -51.1347 -1.63008e-006 2.61674e-006 -14.0005 0.0497504 -0.295977 -0.0620468 -9.20659e-009 1.16058e-007 -9.04984e-007 -1.78221e-007 -1.79764e-008 -3.27228e-006 7.95139e-016 3.18055e-015 -1.27222e-014 -9.20659e-009 1.16058e-007 -9.04984e-007 -0.0146138 -9.00396e-005 -5.10962e-006 -7.95139e-016 -1.59028e-015 -6.36111e-015 -9.20659e-009 1.16058e-007 -9.04984e-007 -0.0187413 -0.00117462 5.62577e-005 -1.15192e-008 1.16062e-007 -9.04958e-007 -9.20659e-009 1.16058e-007 -9.04984e-007 -0.0123186 -0.00326072 0.000675037 -7.95139e-016 0 -3.18055e-015 -9.20659e-009 1.16058e-007 -9.04984e-007 -1.78221e-007 -1.79764e-008 -3.27228e-006 7.95139e-016 3.18055e-015 -1.27222e-014 -3.39443e-007 -4.9282e-006 -3.16785e-006 37.243 -21.7278 65.2418 6.30712 3.1875 71.6051 1.92222e-006 4.25708e-006 -1.60916e-006 -7.36738e-007 3.10395e-006 8.32793e-007 2.36721e-006 3.84068e-006 -5.7184e-008 -7.36738e-007 3.10395e-006 8.32793e-007 -7.36738e-007 3.10395e-006 8.32793e-007 0.0149856 -8.80957e-005 1.3976e-006 -6.6458e-007 3.65607e-006 7.32506e-007 -7.36738e-007 3.10395e-006 8.32793e-007 0.018951 -0.00118803 -6.20728e-005 -6.65059e-007 3.65623e-006 7.32394e-007 -7.36738e-007 3.10395e-006 8.32793e-007 0.0122414 -0.00323373 -0.000669573 -8.0903e-007 2.55158e-006 9.3226e-007 -7.36738e-007 3.10395e-006 8.32793e-007 2.36721e-006 3.84068e-006 -5.7184e-008 -7.36738e-007 3.10395e-006 8.32793e-007 -41.2366 -70.7553 -40.7229 0.105309 30.4172 -1.9401 -3.96062 27.9515 0.986084 2.72789e-007 5.70589e-006 7.82823e-007 -167.862 -71.3948 -160.495 -179.965 46.6503 -175.13 3.42902 -4.43239 3.39664 -1.26228e-014 4.26481e-007 1.43125e-014 
0.166555 3.76444 5.42211 -0 -26.0015 -0 0.914914 9.82663 5.73317 0.830062 19.695 11.5667 0.830059 19.695 11.5667 -0.945966 -0.271154 -0.0074746 -0.576447 -7.03192 11.703 -1.58017e-006 -9.33332e-006 0.0360124 -2.9584 -14.2272 -51.1347 8.33104e-007 9.0011e-007 -14.0005 0.0499069 -0.296874 -0.062239 7.95139e-016 2.38542e-015 -1.90833e-014 1.4615e-007 9.40635e-007 5.63278e-008 -2.38542e-015 7.95139e-016 6.36111e-015 7.95139e-016 2.38542e-015 -1.90833e-014 -0.0145942 -8.827e-005 -3.85837e-006 -1.76556e-031 -1.59028e-015 -6.36111e-015 7.95139e-016 2.38542e-015 -1.90833e-014 -0.0187184 -0.00117354 6.32968e-005 -7.95139e-016 3.18055e-015 3.18055e-015 7.95139e-016 2.38542e-015 -1.90833e-014 -0.0122491 -0.0032429 0.000673257 1.59028e-015 7.95139e-016 -1.27222e-014 7.95139e-016 2.38542e-015 -1.90833e-014 1.4615e-007 9.40635e-007 5.63278e-008 -2.38542e-015 7.95139e-016 6.36111e-015 -5.85212e-007 -6.05991e-006 -3.33574e-006 37.9886 -21.6195 65.7308 6.35802 3.08322 70.6726 -1.54572e-006 -3.76596e-007 4.53989e-007 1.54572e-006 3.76596e-007 -4.53989e-007 5.2356e-006 2.14661e-006 2.14412e-006 1.54572e-006 3.76596e-007 -4.53989e-007 1.54572e-006 3.76596e-007 -4.53989e-007 0.0149969 -9.31198e-005 -5.64814e-007 1.54577e-006 3.76537e-007 -4.5404e-007 1.54572e-006 3.76596e-007 -4.53989e-007 0.0189885 -0.00118652 -5.72268e-005 1.54578e-006 3.76518e-007 -4.54068e-007 1.54572e-006 3.76596e-007 -4.53989e-007 0.0122211 -0.00323224 -0.000670413 1.54575e-006 3.76545e-007 -4.54076e-007 1.54572e-006 3.76596e-007 -4.53989e-007 5.2356e-006 2.14661e-006 2.14412e-006 1.54572e-006 3.76596e-007 -4.53989e-007 -40.6411 -70.518 -40.0664 0.0977258 29.4968 -1.91504 -3.96947 28.2453 0.999104 1.17938e-006 1.7573e-007 -4.66248e-007 -167.865 -71.387 -160.498 -179.964 46.645 -175.13 3.42932 -4.42989 3.39694 -8.87323e-015 0 -2.03362e-013 
0.166998 3.76285 5.42199 -0 -26.0015 -0 0.914914 9.82664 5.73317 0.830062 19.695 11.5667 0.830059 19.695 11.5667 -0.945935 -0.270982 -0.00747591 -0.56621 -7.11111 11.8944 -7.36537e-007 -4.71347e-006 0.0361241 -2.9584 -14.2272 -51.1347 -6.98366e-007 4.44063e-007 -14.0005 0.0500605 -0.297766 -0.0624328 7.95139e-016 0 -0 7.06225e-031 -3.18055e-015 1.27222e-014 7.95139e-016 7.95139e-016 1.27222e-014 7.95139e-016 0 -0 -0.0145865 -8.77573e-005 9.73821e-006 -3.18055e-015 -1.59028e-015 1.27222e-014 7.95139e-016 0 -0 -0.0187691 -0.00117575 5.19988e-005 -1.59028e-015 3.18055e-015 1.27222e-014 7.95139e-016 0 -0 -0.0122679 -0.00324793 0.00067444 1.07116e-008 -1.1554e-007 9.04908e-007 7.95139e-016 0 -0 7.06225e-031 -3.18055e-015 1.27222e-014 7.95139e-016 7.95139e-016 1.27222e-014 -5.85212e-007 -6.05991e-006 -3.33574e-006 38.7323 -21.5053 66.2176 6.40746 2.97986 69.741 -1.59028e-015 9.54166e-015 9.54166e-015 -3.18055e-015 9.54166e-015 9.54166e-015 6.36111e-015 9.54166e-015 -3.18055e-015 1.59028e-015 9.54166e-015 -3.18055e-015 -3.18055e-015 9.54166e-015 9.54166e-015 0.0150082 -8.69628e-005 1.10315e-006 9.54166e-015 -3.18055e-015 3.18055e-015 -3.18055e-015 9.54166e-015 9.54166e-015 0.0189773 -0.00118822 -5.9924e-005 -3.18055e-015 0 -0 -3.18055e-015 9.54166e-015 9.54166e-015 0.012281 -0.00324733 -0.000678964 0 0 -0 -3.18055e-015 9.54166e-015 9.54166e-015 6.36111e-015 9.54166e-015 -3.18055e-015 1.59028e-015 9.54166e-015 -3.18055e-015 -40.057 -70.2783 -39.4218 0.0885836 28.5793 -1.88963 -3.97764 28.5398 1.01204 1.21103e-007 3.2294e-006 -1.51289e-007 -167.866 -71.3854 -160.497 -179.964 46.6458 -175.129 3.4296 -4.42738 3.39722 -4.02287e-013 7.95139e-016 1.19427e-013 
